HIERARCHY
ROOT Joint1
{
	OFFSET 0.000000 0.000000 0.000000
	CHANNELS 6 Xposition Yposition Zposition Xrotation Yrotation Zrotation
	JOINT Joint2
	{
		OFFSET -0.000000 0.000000 1.456275
		CHANNELS 6 Xposition Yposition Zposition Xrotation Yrotation Zrotation
		JOINT Joint3
		{
			OFFSET -0.000000 0.000002 1.471446
			CHANNELS 6 Xposition Yposition Zposition Xrotation Yrotation Zrotation
			JOINT Joint4
			{
				OFFSET 0.625745 0.000000 0.917755
				CHANNELS 6 Xposition Yposition Zposition Xrotation Yrotation Zrotation
				JOINT Joint5
				{
					OFFSET -0.629534 0.000001 0.940221
					CHANNELS 6 Xposition Yposition Zposition Xrotation Yrotation Zrotation
					JOINT Joint6
					{
						OFFSET -0.000001 0.113772 1.960660
						CHANNELS 6 Xposition Yposition Zposition Xrotation Yrotation Zrotation
						JOINT Joint7
						{
							OFFSET -0.669733 -0.113771 0.388340
							CHANNELS 6 Xposition Yposition Zposition Xrotation Yrotation Zrotation
							End Site
							{
								OFFSET 0.005509 0.005509 0.438980
							}
						}
					}
				}
			}
		}
	}
}
MOTION
Frames: 27
Frame Time: 0.041667
0.000000 0.000000 0.000000 -0.000000 1.019410 31.755660 -0.000000 -0.000000 1.456275 0.000002 23.231731 -0.000002 -0.000000 0.000002 1.471446 -0.000002 -1.133456 50.992785 0.625745 0.000000 0.917755 0.000003 156.022530 -0.000000 -0.629534 0.000001 0.940221 -0.000002 1.709736 75.305014 -0.000001 0.113771 1.960660 -88.303882 -169.992576 -0.000001 -0.669733 -0.113771 0.388340 0.271887 2.267366 28.872244 
0.000000 0.000000 0.000000 -0.000000 1.019410 31.731788 -0.000000 -0.000000 1.456275 -0.000000 23.180451 -0.000002 -0.000000 0.000002 1.471446 -0.000002 -1.133456 50.954424 0.625745 0.000001 0.917755 0.000003 156.006753 -0.000000 -0.629534 0.000001 0.940221 -0.000001 1.709736 75.248392 -0.000001 0.113772 1.960661 -88.303882 -170.067776 0.000000 -0.669733 -0.113771 0.388339 0.272281 2.268726 28.951942 
0.000000 0.000000 0.000000 -0.000000 1.019410 31.692074 -0.000000 0.000000 1.456275 -0.000001 23.095168 0.000001 -0.000000 0.000002 1.471446 -0.000002 -1.133458 50.890633 0.625745 0.000001 0.917755 0.000005 155.980497 0.000001 -0.629534 0.000001 0.940221 -0.000001 1.709736 75.154218 -0.000001 0.113772 1.960661 -88.303882 -170.192851 0.000000 -0.669733 -0.113771 0.388340 0.272930 2.270988 29.084489 
0.000000 0.000000 0.000000 -0.000000 1.019410 31.636596 -0.000000 -0.000000 1.456275 -0.000001 22.976046 0.000000 -0.000001 0.000002 1.471446 -0.000002 -1.133456 50.801516 0.625745 0.000000 0.917754 0.000000 155.943819 -0.000001 -0.629534 0.000001 0.940221 -0.000000 1.709736 75.022682 -0.000001 0.113772 1.960660 -88.303882 -170.367553 -0.000001 -0.669733 -0.113771 0.388340 0.273826 2.274148 29.269635 
0.000000 0.000000 0.000000 -0.000000 1.019410 31.565443 -0.000000 0.000000 1.456275 0.000000 22.823224 0.000000 -0.000000 0.000002 1.471446 -0.000002 -1.133454 50.687206 0.625744 0.000000 0.917755 0.000003 155.896773 -0.000001 -0.629534 0.000001 0.940220 -0.000000 1.709737 74.853928 -0.000001 0.113772 1.960661 -88.303882 -170.591679 -0.000001 -0.669733 -0.113771 0.388340 0.274962 2.278209 29.507151 
0.000000 0.000000 0.000000 -0.000000 1.019410 31.478662 -0.000000 -0.000000 1.456275 0.000000 22.636857 -0.000000 -0.000000 0.000002 1.471446 -0.000002 -1.133458 50.547785 0.625745 0.000000 0.917755 0.000004 155.839386 0.000000 -0.629534 0.000001 0.940221 -0.000003 1.709737 74.648148 -0.000001 0.113772 1.960661 -88.303882 -170.864982 -0.000001 -0.669733 -0.113771 0.388340 0.276323 2.283165 29.796799 
0.000000 0.000000 0.000000 -0.000000 1.019410 31.376328 -0.000000 -0.000000 1.456275 -0.000000 22.417108 -0.000002 -0.000000 0.000002 1.471445 -0.000002 -1.133456 50.383416 0.625745 0.000001 0.917755 0.000002 155.771739 0.000000 -0.629534 0.000001 0.940221 -0.000001 1.709737 74.405499 -0.000001 0.113772 1.960661 -88.303882 -171.187258 0.000001 -0.669733 -0.113771 0.388340 0.277897 2.289021 30.138339 
0.000000 0.000000 0.000000 -0.000000 1.019410 31.258528 -0.000000 -0.000000 1.456275 -0.000000 22.164126 -0.000003 -0.000000 0.000002 1.471446 -0.000001 -1.133455 50.194162 0.625745 0.000001 0.917755 0.000003 155.693848 -0.000000 -0.629534 0.000001 0.940221 -0.000002 1.709736 74.126151 -0.000001 0.113771 1.960660 -88.303882 -171.558260 -0.000000 -0.669733 -0.113771 0.388340 0.279665 2.295774 30.531540 
0.000000 0.000000 0.000000 -0.000000 1.019410 31.125315 -0.000000 -0.000000 1.456275 0.000001 21.878059 -0.000001 -0.000000 0.000002 1.471446 -0.000003 -1.133455 49.980176 0.625745 0.000000 0.917755 0.000002 155.605793 0.000000 -0.629534 0.000001 0.940221 -0.000000 1.709735 73.810269 -0.000001 0.113772 1.960661 -88.303875 -171.977798 -0.000001 -0.669733 -0.113771 0.388340 0.281609 2.303425 30.976158 
0.000000 0.000000 0.000000 -0.000000 1.019410 30.976776 -0.000000 -0.000000 1.456275 -0.000000 21.559062 -0.000000 -0.000000 0.000002 1.471445 -0.000001 -1.133458 49.741556 0.625745 0.000000 0.917755 0.000001 155.507575 0.000000 -0.629534 0.000001 0.940221 -0.000001 1.709737 73.458022 -0.000001 0.113772 1.960660 -88.303882 -172.445611 -0.000001 -0.669733 -0.113771 0.388340 0.283708 2.311971 31.471951 
0.000000 0.000000 0.000000 -0.000000 1.019410 30.812971 -0.000000 0.000000 1.456275 0.000001 21.207287 0.000003 -0.000000 0.000002 1.471446 -0.000003 -1.133457 49.478409 0.625745 0.000000 0.917755 0.000004 155.399289 0.000000 -0.629534 0.000001 0.940221 0.000000 1.709736 73.069596 -0.000001 0.113772 1.960661 -88.303882 -172.961509 0.000000 -0.669733 -0.113771 0.388340 0.285934 2.321417 32.018708 
0.000000 0.000000 0.000000 -0.000000 1.019410 30.633972 -0.000000 0.000000 1.456275 0.000000 20.822895 0.000001 -0.000001 0.000002 1.471446 -0.000000 -1.133458 49.190865 0.625745 0.000000 0.917756 0.000002 155.280936 -0.000000 -0.629534 0.000001 0.940221 -0.000000 1.709736 72.645141 -0.000001 0.113772 1.960660 -88.303882 -173.525232 -0.000001 -0.669733 -0.113771 0.388340 0.288262 2.331764 32.616155 
0.000000 0.000000 0.000000 -0.000000 1.019410 30.439855 -0.000000 0.000000 1.456275 -0.000001 20.406027 0.000002 -0.000000 0.000002 1.471446 -0.000000 -1.133457 48.879033 0.625745 0.000000 0.917755 0.000003 155.152596 0.000000 -0.629534 0.000001 0.940221 0.000001 1.709737 72.184834 -0.000001 0.113772 1.960661 -88.303882 -174.136588 0.000000 -0.669733 -0.113771 0.388340 0.290669 2.343010 33.264070 
0.000000 0.000000 0.000000 -0.000000 1.019410 30.231411 -0.000000 0.000000 1.456275 0.000000 19.958383 0.000000 -0.000000 0.000002 1.471446 -0.000002 -1.133457 48.544176 0.625745 0.000000 0.917755 0.000005 155.014791 0.000000 -0.629534 0.000001 0.940221 -0.000000 1.709739 71.690540 -0.000001 0.113772 1.960661 -88.303882 -174.793079 0.000001 -0.669733 -0.113771 0.388339 0.293108 2.355117 33.959847 
0.000000 0.000000 0.000000 -0.000000 1.019410 30.012271 -0.000000 0.000000 1.456275 0.000000 19.487785 0.000000 -0.000000 0.000002 1.471446 -0.000004 -1.133456 48.192148 0.625744 0.000000 0.917755 0.000005 154.869909 -0.000001 -0.629534 0.000001 0.940221 -0.000000 1.709738 71.170899 -0.000001 0.113771 1.960661 -88.303882 -175.483228 -0.000000 -0.669733 -0.113771 0.388339 0.295516 2.367876 34.691296 
0.000000 0.000000 0.000000 -0.000000 1.019410 29.786810 -0.000000 0.000000 1.456275 -0.000001 19.003603 0.000000 -0.000000 0.000002 1.471446 -0.000002 -1.133456 47.829954 0.625745 0.000000 0.917756 0.000004 154.720833 -0.000001 -0.629534 0.000001 0.940221 0.000001 1.709736 70.636245 -0.000001 0.113772 1.960660 -88.303882 -176.193308 0.000001 -0.669733 -0.113771 0.388341 0.297822 2.381033 35.443870 
0.000000 0.000000 0.000000 -0.000000 1.019410 29.559379 -0.000000 0.000000 1.456275 -0.000001 18.515198 0.000001 -0.000000 0.000002 1.471446 -0.000001 -1.133457 47.464607 0.625744 0.000000 0.917755 0.000004 154.570473 -0.000001 -0.629534 0.000001 0.940221 -0.000000 1.709738 70.096954 -0.000001 0.113772 1.960660 -88.303882 -176.909577 0.000000 -0.669733 -0.113771 0.388340 0.299971 2.394335 36.203008 
0.000000 0.000000 0.000000 -0.000000 1.019410 29.334348 -0.000000 -0.000000 1.456275 -0.000000 18.031942 0.000000 -0.000000 0.000002 1.471446 -0.000002 -1.133458 47.103109 0.625744 0.000000 0.917756 0.000004 154.421712 0.000001 -0.629534 0.000001 0.940220 -0.000001 1.709737 69.563332 -0.000001 0.113772 1.960660 -88.303882 -177.618291 -0.000000 -0.669733 -0.113771 0.388341 0.301926 2.407523 36.954151 
0.000000 0.000000 0.000000 -0.000000 1.019410 29.116079 -0.000000 0.000000 1.456275 0.000001 17.563201 -0.000002 -0.000000 0.000002 1.471446 -0.000001 -1.133457 46.752474 0.625745 0.000000 0.917755 0.000002 154.277390 0.000001 -0.629534 0.000001 0.940221 -0.000000 1.709738 69.045740 -0.000001 0.113772 1.960661 -88.303875 -178.305722 0.000001 -0.669733 -0.113771 0.388340 0.303658 2.420340 37.682748 
0.000000 0.000000 0.000000 -0.000000 1.019410 28.905029 -0.000000 0.000000 1.456275 -0.000001 17.109981 -0.000002 -0.000000 0.000002 1.471445 -0.000001 -1.133456 46.413441 0.625745 0.000000 0.917755 0.000003 154.137863 0.000001 -0.629534 0.000001 0.940221 -0.000000 1.709736 68.545292 -0.000001 0.113771 1.960660 -88.303882 -178.970395 -0.000000 -0.669733 -0.113771 0.388340 0.305176 2.432751 38.387224 
0.000000 0.000000 0.000000 -0.000000 1.019410 28.686111 -0.000000 0.000000 1.456275 -0.000001 16.639866 -0.000001 -0.000000 0.000002 1.471446 -0.000002 -1.133458 46.061768 0.625745 0.000000 0.917755 0.000003 153.993131 0.000000 -0.629534 0.000001 0.940221 -0.000000 1.709737 68.026171 -0.000001 0.113772 1.960661 -88.303875 -179.659848 0.000001 -0.669733 -0.113771 0.388340 0.306588 2.445644 39.117976 
0.000000 0.000000 0.000000 -0.000000 1.019410 28.440348 -0.000000 -0.000000 1.456275 -0.000001 16.112073 -0.000001 -0.000000 0.000002 1.471446 -0.000001 -1.133455 45.666959 0.625744 0.000000 0.917755 0.000001 153.830627 0.000002 -0.629534 0.000001 0.940221 0.000000 1.709738 67.443385 -0.000001 0.113771 1.960661 -88.303882 -180.433900 0.000000 -0.669733 -0.113771 0.388340 0.307975 2.460139 39.938367 
0.000000 0.000000 0.000000 -0.000000 1.019410 28.148734 -0.000000 -0.000000 1.456275 0.000000 15.485837 0.000002 -0.000000 0.000002 1.471446 -0.000002 -1.133454 45.198504 0.625745 0.000000 0.917755 0.000003 153.637838 0.000000 -0.629534 0.000001 0.940221 0.000000 1.709739 66.751883 -0.000001 0.113772 1.960660 -88.303882 -181.352287 0.000001 -0.669733 -0.113771 0.388340 0.309356 2.477361 40.911802 
0.000000 0.000000 0.000000 -0.000000 1.019410 27.792294 -0.000000 -0.000000 1.456275 -0.000000 14.720374 -0.000000 -0.000000 0.000002 1.471446 -0.000001 -1.133455 44.625905 0.625745 0.000000 0.917755 0.000002 153.402183 0.000000 -0.629534 0.000001 0.940221 -0.000000 1.709736 65.906647 -0.000001 0.113772 1.960661 -88.303882 -182.474883 0.000001 -0.669733 -0.113771 0.388340 0.310645 2.498438 42.101662 
0.000000 0.000000 0.000000 -0.000000 1.019410 27.364048 -0.000000 0.000000 1.456275 -0.000000 13.800719 -0.000001 -0.000000 0.000002 1.471446 -0.000002 -1.133456 43.937965 0.625745 0.000000 0.917755 0.000003 153.119044 -0.000000 -0.629534 0.000001 0.940221 -0.000001 1.709735 64.891155 -0.000001 0.113772 1.960661 -88.303882 -183.823613 0.000001 -0.669733 -0.113771 0.388340 0.311612 2.523792 43.531234 
0.000000 0.000000 0.000000 -0.000000 1.019410 26.905088 -0.000000 -0.000000 1.456275 -0.000000 12.815100 -0.000000 -0.000000 0.000002 1.471446 -0.000002 -1.133456 43.200680 0.625744 0.000000 0.917755 0.000005 152.815606 -0.000003 -0.629534 0.000001 0.940221 0.000000 1.709738 63.802819 -0.000001 0.113772 1.960660 -88.303882 -185.269059 0.000001 -0.669733 -0.113771 0.388340 0.311945 2.550981 45.063385 
0.000000 0.000000 0.000000 -0.000000 1.019410 26.468511 -0.000000 -0.000000 1.456275 -0.000000 11.877548 -0.000001 -0.000000 0.000002 1.471446 -0.000002 -1.133456 42.499346 0.625745 0.000000 0.917755 0.000003 152.526976 -0.000000 -0.629533 0.000001 0.940221 -0.000001 1.709735 62.767553 -0.000001 0.113772 1.960660 -88.303882 -186.644017 0.000001 -0.669733 -0.113771 0.388340 0.311586 2.576843 46.520832 
